<svg width="136" height="41" viewBox="0 0 136 41" fill="none" xmlns="http://www.w3.org/2000/svg">
<g clip-path="url(#clip0)">
<path d="M130.54 39.943H5.24003C2.48503 39.943 0.228027 37.713 0.228027 34.989V5.26696C0.228027 2.54396 2.48503 0.313965 5.24003 0.313965H130.54C133.295 0.313965 135.551 2.54396 135.551 5.26696V34.99C135.551 37.714 133.295 39.944 130.539 39.944L130.54 39.943Z" fill="black"/>
<path d="M130.54 1.10796C132.86 1.10796 134.748 2.97396 134.748 5.26796V34.989C134.748 37.283 132.86 39.149 130.539 39.149H5.24003C2.92003 39.149 1.03203 37.283 1.03203 34.989V5.26696C1.03203 2.97396 2.92003 1.10696 5.24003 1.10696H130.54V1.10796ZM130.54 0.313965H5.24003C2.48503 0.313965 0.228027 2.54396 0.228027 5.26696V34.99C0.228027 37.714 2.48503 39.944 5.24003 39.944H130.54C133.295 39.944 135.551 37.714 135.551 34.99V5.26696C135.551 2.54396 133.295 0.313965 130.539 0.313965H130.54Z" fill="#A6A6A6"/>
<path d="M47.7588 10.4621C47.7588 11.2894 47.5082 11.9519 47.0146 12.4461C46.4469 13.0318 45.7077 13.3266 44.8018 13.3266C44.3914 13.3334 43.9839 13.258 43.6038 13.105C43.2238 12.952 42.879 12.7244 42.5902 12.4362C41.9825 11.8368 41.6793 11.1012 41.6793 10.2206C41.6793 9.34013 41.9825 8.60452 42.5902 8.01008C42.878 7.7202 43.2225 7.4913 43.6027 7.33736C43.983 7.18342 44.3909 7.10766 44.8018 7.11471C45.2328 7.11471 45.6438 7.20263 46.036 7.36611C46.4269 7.53081 46.7452 7.75373 46.9757 8.02865L46.452 8.55126C46.0497 8.08191 45.5022 7.85032 44.8018 7.85032C44.1703 7.85032 43.6227 8.06828 43.1578 8.50792C42.698 8.94879 42.4674 9.5197 42.4674 10.2206C42.4674 10.9216 42.698 11.4974 43.1578 11.9383C43.596 12.3642 44.1873 12.6007 44.8018 12.5959C45.4721 12.5959 46.036 12.373 46.4808 11.9334C46.774 11.6423 46.9406 11.2411 46.9845 10.7284H44.8018V10.0126H47.7137C47.7488 10.1674 47.7588 10.3172 47.7588 10.4621V10.4621ZM52.3786 7.98036H49.6433V9.86274H52.1092V10.5785H49.6433V12.4609H52.3786V13.1903H48.869V7.25093H52.3786V7.98036ZM55.6389 13.1903H54.8645V7.98036H53.1868V7.25093H57.3179V7.98036H55.6389V13.1903V13.1903ZM60.3075 13.1903V7.25093H61.0806V13.1903H60.3075ZM64.5075 13.1903H63.7395V7.98036H62.0554V7.25093H66.1916V7.98036H64.5075V13.1903ZM74.0127 12.4262C73.4201 13.0269 72.6858 13.3266 71.81 13.3266C70.9291 13.3266 70.1949 13.0269 69.6022 12.4262C69.0108 11.8269 68.7163 11.0912 68.7163 10.2206C68.7163 9.35004 69.0108 8.61442 69.6022 8.01503C70.1949 7.4144 70.9291 7.11471 71.81 7.11471C72.6808 7.11471 73.4151 7.4144 74.0077 8.01999C74.6041 8.62433 74.8986 9.35499 74.8986 10.2206C74.8986 11.0912 74.6041 11.8269 74.0127 12.4262V12.4262ZM70.1748 11.9284C70.6209 12.373 71.1634 12.5959 71.81 12.5959C72.4515 12.5959 72.9991 12.373 73.4401 11.9284C73.8849 11.4838 74.1105 10.9129 74.1105 10.2206C74.1105 9.52837 73.8849 8.95746 73.4401 8.51287C73.2297 8.29645 72.9763 8.12542 72.6957 8.01054C72.4152 7.89566 72.1136 7.83942 71.81 7.84537C71.1634 7.84537 70.6209 8.06828 70.1748 8.51287C69.73 8.95746 69.5045 9.52837 69.5045 10.2206C69.5045 10.9129 69.73 11.4838 70.1748 11.9284V11.9284ZM75.9849 13.1903V7.25093H76.9247L79.8466 11.8702H79.8805L79.8466 10.7284V7.25093H80.6197V13.1903H79.8128L76.753 8.34321H76.7192L76.753 9.48998V13.1903H75.9849V13.1903Z" fill="white" stroke="white" stroke-width="0.199309" stroke-miterlimit="10"/>
<path d="M68.526 21.8649C66.172 21.8649 64.249 23.6349 64.249 26.0789C64.249 28.5029 66.172 30.2919 68.526 30.2919C70.886 30.2919 72.809 28.5019 72.809 26.0789C72.809 23.6359 70.886 21.8649 68.526 21.8649V21.8649ZM68.526 28.6329C67.235 28.6329 66.123 27.5789 66.123 26.0789C66.123 24.5589 67.235 23.5239 68.526 23.5239C69.818 23.5239 70.935 24.5589 70.935 26.0789C70.935 27.5789 69.818 28.6329 68.526 28.6329ZM59.193 21.8649C56.833 21.8649 54.915 23.6349 54.915 26.0789C54.915 28.5029 56.833 30.2919 59.193 30.2919C61.551 30.2919 63.471 28.5019 63.471 26.0789C63.471 23.6359 61.551 21.8649 59.193 21.8649V21.8649ZM59.193 28.6329C57.9 28.6329 56.785 27.5789 56.785 26.0789C56.785 24.5589 57.9 23.5239 59.193 23.5239C60.485 23.5239 61.596 24.5589 61.596 26.0789C61.596 27.5789 60.485 28.6329 59.193 28.6329ZM48.086 23.1559V24.9469H52.413C52.286 25.9469 51.948 26.6829 51.429 27.1959C50.798 27.8159 49.814 28.5029 48.086 28.5029C47.4609 28.5062 46.8414 28.3854 46.2634 28.1475C45.6853 27.9095 45.1603 27.5592 44.7187 27.1168C44.2771 26.6743 43.9278 26.1487 43.6909 25.5702C43.4541 24.9917 43.3345 24.372 43.339 23.7469C43.3345 23.1218 43.4541 22.5021 43.6909 21.9236C43.9278 21.3452 44.2771 20.8195 44.7187 20.377C45.1603 19.9346 45.6853 19.5843 46.2634 19.3463C46.8414 19.1084 47.4609 18.9876 48.086 18.9909C49.526 18.9909 50.574 19.5479 51.346 20.2679L52.623 19.0059C51.543 17.9859 50.103 17.2019 48.086 17.2019C44.436 17.2019 41.366 20.1379 41.366 23.7469C41.366 27.3559 44.436 30.2919 48.086 30.2919C50.06 30.2919 51.542 29.6529 52.707 28.4539C53.901 27.2739 54.274 25.6139 54.274 24.2739C54.274 23.8579 54.239 23.4759 54.176 23.1559H48.086V23.1559ZM93.502 24.5449C93.15 23.6019 92.064 21.8649 89.851 21.8649C87.658 21.8649 85.833 23.5719 85.833 26.0789C85.833 28.4389 87.639 30.2919 90.061 30.2919C90.7616 30.2986 91.453 30.1315 92.0732 29.8055C92.6934 29.4795 93.2232 29.0048 93.615 28.4239L92.162 27.4669C91.677 28.1679 91.016 28.6329 90.062 28.6329C89.113 28.6329 88.432 28.2029 87.997 27.3559L93.699 25.0239L93.502 24.5439V24.5449ZM87.688 25.9479C87.639 24.3229 88.965 23.4909 89.915 23.4909C90.659 23.4909 91.291 23.8579 91.501 24.3849L87.688 25.9479V25.9479ZM83.054 30.0359H84.928V17.6519H83.054V30.0359V30.0359ZM79.984 22.8029H79.921C79.5 22.3099 78.697 21.8649 77.679 21.8649C75.544 21.8649 73.592 23.7169 73.592 26.0929C73.592 28.4539 75.544 30.2919 77.679 30.2919C78.697 30.2919 79.5 29.8419 79.921 29.3349H79.984V29.9389C79.984 31.5499 79.113 32.4159 77.708 32.4159C76.563 32.4159 75.853 31.5989 75.559 30.9109L73.929 31.5839C74.399 32.7009 75.643 34.0749 77.709 34.0749C79.906 34.0749 81.76 32.7969 81.76 29.6879V22.1199H79.984V22.8019V22.8029ZM77.84 28.6329C76.548 28.6329 75.467 27.5629 75.467 26.0929C75.467 24.6079 76.548 23.5239 77.84 23.5239C79.113 23.5239 80.117 24.6079 80.117 26.0929C80.117 27.5629 79.113 28.6329 77.84 28.6329ZM102.278 17.6519H97.795V30.0359H99.665V25.3429H102.278C104.354 25.3429 106.39 23.8579 106.39 21.4969C106.39 19.1369 104.35 17.6519 102.278 17.6519V17.6519ZM102.327 23.6209H99.664V19.3739H102.327C102.899 19.3653 103.451 19.584 103.862 19.982C104.273 20.38 104.51 20.9248 104.52 21.4969C104.52 22.4549 103.723 23.6209 102.327 23.6209ZM113.883 21.8409C112.533 21.8409 111.128 22.4309 110.55 23.7369L112.21 24.4239C112.566 23.7369 113.223 23.5139 113.917 23.5139C114.887 23.5139 115.871 24.0899 115.886 25.1069V25.2369C115.547 25.0439 114.823 24.7569 113.932 24.7569C112.145 24.7569 110.325 25.7299 110.325 27.5439C110.325 29.2039 111.788 30.2719 113.434 30.2719C114.692 30.2719 115.386 29.7119 115.822 29.0589H115.886V30.0159H117.691V25.2659C117.691 23.0699 116.032 21.8409 113.883 21.8409V21.8409ZM113.658 28.6279C113.046 28.6279 112.194 28.3279 112.194 27.5779C112.194 26.6199 113.257 26.2519 114.177 26.2519C115 26.2519 115.386 26.4319 115.886 26.6679C115.739 27.8149 114.74 28.6279 113.658 28.6279V28.6279ZM124.269 22.1119L122.121 27.4809H122.057L119.835 22.1119H117.819L121.157 29.6149L119.252 33.7889H121.206L126.349 22.1119H124.269ZM107.418 30.0359H109.292V17.6519H107.418V30.0359V30.0359Z" fill="white"/>
<path d="M10.6879 7.78241C10.3934 8.08705 10.223 8.56137 10.223 9.17562V31.0856C10.223 31.6998 10.3934 32.1741 10.6879 32.4788L10.7606 32.5457L23.1827 20.273V19.9832L10.7606 7.71058L10.6879 7.78241Z" fill="url(#paint0_linear)"/>
<path d="M27.3189 24.366L23.1827 20.273V19.9832L27.3239 15.8903L27.4166 15.9435L32.3208 18.7015C33.7204 19.4842 33.7204 20.7721 32.3208 21.5597L27.4166 24.3127L27.3189 24.366V24.366Z" fill="url(#paint1_linear)"/>
<path d="M27.4165 24.3129L23.1827 20.1283L10.6879 32.4789C11.1527 32.9619 11.9108 33.0201 12.7728 32.5371L27.4165 24.3129" fill="url(#paint2_linear)"/>
<path d="M27.4165 15.9436L12.7728 7.71931C11.9108 7.24128 11.1527 7.29948 10.6879 7.78246L23.1827 20.1282L27.4165 15.9436Z" fill="url(#paint3_linear)"/>
</g>
<defs>
<linearGradient id="paint0_linear" x1="22.0801" y1="31.3134" x2="5.4538" y2="14.4924" gradientUnits="userSpaceOnUse">
<stop stop-color="#00A0FF"/>
<stop offset="0.007" stop-color="#00A1FF"/>
<stop offset="0.26" stop-color="#00BEFF"/>
<stop offset="0.512" stop-color="#00D2FF"/>
<stop offset="0.76" stop-color="#00DFFF"/>
<stop offset="1" stop-color="#00E3FF"/>
</linearGradient>
<linearGradient id="paint1_linear" x1="34.1429" y1="20.1271" x2="9.88902" y2="20.1271" gradientUnits="userSpaceOnUse">
<stop stop-color="#FFE000"/>
<stop offset="0.409" stop-color="#FFBD00"/>
<stop offset="0.775" stop-color="#FFA500"/>
<stop offset="1" stop-color="#FF9C00"/>
</linearGradient>
<linearGradient id="paint2_linear" x1="25.1143" y1="17.8536" x2="2.56885" y2="-4.95732" gradientUnits="userSpaceOnUse">
<stop stop-color="#FF3A44"/>
<stop offset="1" stop-color="#C31162"/>
</linearGradient>
<linearGradient id="paint3_linear" x1="7.54236" y1="39.7684" x2="17.6104" y2="29.5818" gradientUnits="userSpaceOnUse">
<stop stop-color="#32A071"/>
<stop offset="0.069" stop-color="#2DA771"/>
<stop offset="0.476" stop-color="#15CF74"/>
<stop offset="0.801" stop-color="#06E775"/>
<stop offset="1" stop-color="#00F076"/>
</linearGradient>
<clipPath id="clip0">
<rect width="135.716" height="40.019" fill="white"/>
</clipPath>
</defs>
</svg>
