<svg width="135" height="40" viewBox="0 0 135 40" fill="none" xmlns="http://www.w3.org/2000/svg">
<g clip-path="url(#clip0)">
<path d="M130.197 40H4.729C3.47499 39.9971 2.27324 39.4974 1.38689 38.6103C0.500547 37.7232 0.00184854 36.521 0 35.267L0 4.726C0.00185325 3.47264 0.500776 2.27118 1.38732 1.3852C2.27386 0.499218 3.47564 0.00105789 4.729 0L130.197 0C132.803 0 135 2.12 135 4.726V35.267C135 37.872 132.803 40 130.197 40Z" fill="#A6A6A6"/>
<path d="M134.032 35.2679C134.032 35.7712 133.933 36.2696 133.74 36.7345C133.547 37.1994 133.265 37.6218 132.909 37.9775C132.553 38.3332 132.13 38.6153 131.665 38.8075C131.2 38.9997 130.701 39.0984 130.198 39.0979H4.72901C3.71208 39.099 2.73636 38.6961 2.01644 37.9778C1.29652 37.2596 0.89134 36.2848 0.890015 35.2679V4.72489C0.891339 3.7075 1.29636 2.73222 2.01614 2.01319C2.73592 1.29416 3.71162 0.890157 4.72901 0.889893H130.197C130.701 0.889893 131.199 0.989095 131.664 1.18183C132.13 1.37457 132.552 1.65707 132.908 2.0132C133.264 2.36932 133.547 2.7921 133.739 3.25738C133.932 3.72266 134.031 4.22132 134.031 4.72489L134.032 35.2679Z" fill="black"/>
<path d="M30.128 19.784C30.099 16.561 32.767 14.993 32.889 14.92C31.378 12.717 29.036 12.416 28.213 12.392C26.246 12.185 24.338 13.569 23.336 13.569C22.314 13.569 20.771 12.412 19.108 12.446C16.968 12.479 14.966 13.718 13.868 15.642C11.602 19.565 13.292 25.33 15.463 28.501C16.549 30.054 17.818 31.788 19.479 31.727C21.104 31.66 21.711 30.691 23.672 30.691C25.615 30.691 26.185 31.727 27.879 31.688C29.623 31.66 30.721 30.128 31.769 28.561C33.024 26.781 33.528 25.028 33.548 24.938C33.507 24.924 30.161 23.647 30.128 19.784V19.784ZM26.928 10.306C27.802 9.21304 28.4 7.72604 28.234 6.21704C26.969 6.27304 25.387 7.09204 24.476 8.16104C23.67 9.10304 22.95 10.647 23.136 12.099C24.557 12.205 26.016 11.382 26.928 10.306V10.306Z" fill="white"/>
<path d="M53.645 31.504H51.374L50.13 27.595H45.806L44.621 31.504H42.41L46.694 18.196H49.34L53.645 31.504V31.504ZM49.755 25.955L48.63 22.48C48.511 22.125 48.288 21.289 47.959 19.973H47.919C47.7195 20.8114 47.5089 21.6472 47.287 22.48L46.182 25.955H49.755V25.955ZM64.662 26.588C64.662 28.22 64.221 29.51 63.339 30.457C62.549 31.3 61.568 31.721 60.397 31.721C59.133 31.721 58.225 31.267 57.672 30.359H57.632V35.414H55.5V25.067C55.5 24.041 55.473 22.988 55.421 21.908H57.296L57.415 23.429H57.455C58.166 22.283 59.245 21.711 60.693 21.711C61.825 21.711 62.77 22.158 63.526 23.053C64.284 23.949 64.662 25.127 64.662 26.588V26.588ZM62.49 26.666C62.49 25.732 62.28 24.962 61.858 24.356C61.397 23.724 60.778 23.408 60.002 23.408C59.476 23.408 58.998 23.584 58.571 23.931C58.143 24.281 57.863 24.738 57.732 25.304C57.666 25.568 57.633 25.784 57.633 25.954V27.554C57.633 28.252 57.847 28.841 58.275 29.322C58.703 29.803 59.259 30.043 59.943 30.043C60.746 30.043 61.371 29.733 61.818 29.115C62.266 28.496 62.49 27.68 62.49 26.666V26.666ZM75.699 26.588C75.699 28.22 75.258 29.51 74.375 30.457C73.586 31.3 72.605 31.721 71.434 31.721C70.17 31.721 69.262 31.267 68.71 30.359H68.67V35.414H66.538V25.067C66.538 24.041 66.511 22.988 66.459 21.908H68.334L68.453 23.429H68.493C69.203 22.283 70.282 21.711 71.731 21.711C72.862 21.711 73.807 22.158 74.565 23.053C75.32 23.949 75.699 25.127 75.699 26.588ZM73.527 26.666C73.527 25.732 73.316 24.962 72.894 24.356C72.433 23.724 71.816 23.408 71.039 23.408C70.5149 23.4078 70.0077 23.5931 69.607 23.931C69.179 24.281 68.9 24.738 68.769 25.304C68.704 25.568 68.67 25.784 68.67 25.954V27.554C68.67 28.252 68.884 28.841 69.31 29.322C69.738 29.802 70.294 30.043 70.98 30.043C71.783 30.043 72.408 29.733 72.855 29.115C73.303 28.496 73.527 27.68 73.527 26.666V26.666ZM88.039 27.772C88.039 28.904 87.646 29.825 86.857 30.536C85.99 31.313 84.783 31.701 83.232 31.701C81.8 31.701 80.652 31.425 79.783 30.872L80.277 29.095C81.213 29.661 82.24 29.945 83.359 29.945C84.162 29.945 84.787 29.763 85.236 29.401C85.683 29.039 85.906 28.553 85.906 27.947C85.906 27.407 85.722 26.952 85.353 26.583C84.986 26.214 84.373 25.871 83.517 25.554C81.187 24.685 80.023 23.412 80.023 21.738C80.023 20.644 80.431 19.747 81.248 19.049C82.062 18.35 83.148 18.001 84.506 18.001C85.717 18.001 86.723 18.212 87.526 18.633L86.993 20.371C86.243 19.963 85.395 19.759 84.446 19.759C83.696 19.759 83.11 19.944 82.69 20.312C82.5197 20.4626 82.3839 20.6483 82.2919 20.8563C82.1999 21.0642 82.1539 21.2896 82.157 21.517C82.157 22.043 82.36 22.478 82.768 22.82C83.123 23.136 83.768 23.478 84.704 23.847C85.849 24.308 86.69 24.847 87.231 25.465C87.77 26.081 88.039 26.852 88.039 27.772V27.772ZM95.088 23.508H92.738V28.167C92.738 29.352 93.152 29.944 93.982 29.944C94.363 29.944 94.679 29.911 94.929 29.845L94.988 31.464C94.568 31.621 94.015 31.7 93.33 31.7C92.488 31.7 91.83 31.443 91.355 30.93C90.882 30.416 90.644 29.554 90.644 28.343V23.506H89.244V21.906H90.644V20.149L92.738 19.517V21.906H95.088V23.508V23.508ZM105.691 26.627C105.691 28.102 105.269 29.313 104.427 30.26C103.544 31.235 102.372 31.721 100.911 31.721C99.503 31.721 98.382 31.254 97.546 30.32C96.71 29.386 96.292 28.207 96.292 26.786C96.292 25.299 96.722 24.081 97.585 23.134C98.446 22.186 99.608 21.712 101.069 21.712C102.477 21.712 103.61 22.179 104.465 23.114C105.283 24.021 105.691 25.192 105.691 26.627V26.627ZM103.479 26.696C103.479 25.811 103.29 25.052 102.907 24.419C102.46 23.653 101.821 23.271 100.993 23.271C100.136 23.271 99.485 23.654 99.038 24.419C98.655 25.053 98.466 25.824 98.466 26.736C98.466 27.621 98.655 28.38 99.038 29.012C99.499 29.778 100.143 30.16 100.974 30.16C101.788 30.16 102.427 29.77 102.888 28.992C103.281 28.347 103.479 27.58 103.479 26.696V26.696ZM112.621 23.783C112.399 23.7429 112.174 23.7232 111.949 23.724C111.199 23.724 110.619 24.007 110.211 24.574C109.856 25.074 109.678 25.706 109.678 26.469V31.504H107.547L107.567 24.93C107.567 23.824 107.54 22.817 107.487 21.909H109.344L109.422 23.745H109.481C109.706 23.114 110.061 22.606 110.547 22.225C110.992 21.8921 111.532 21.7118 112.088 21.711C112.285 21.711 112.463 21.725 112.621 21.75V23.783ZM122.156 26.252C122.161 26.5761 122.135 26.8999 122.078 27.219H115.682C115.707 28.167 116.016 28.892 116.61 29.392C117.149 29.839 117.846 30.063 118.702 30.063C119.649 30.063 120.513 29.912 121.29 29.609L121.624 31.089C120.716 31.485 119.644 31.682 118.407 31.682C116.919 31.682 115.751 31.244 114.901 30.369C114.053 29.494 113.628 28.319 113.628 26.845C113.628 25.398 114.023 24.193 114.814 23.232C115.642 22.206 116.761 21.693 118.169 21.693C119.552 21.693 120.599 22.206 121.31 23.232C121.873 24.047 122.156 25.055 122.156 26.252V26.252ZM120.123 25.699C120.137 25.067 119.998 24.521 119.709 24.06C119.34 23.467 118.773 23.171 118.01 23.171C117.313 23.171 116.746 23.46 116.313 24.04C115.958 24.501 115.747 25.054 115.682 25.698H120.123V25.699Z" fill="white"/>
<path d="M49.05 10.0089C49.05 11.1859 48.697 12.0719 47.992 12.6669C47.339 13.2159 46.411 13.4909 45.209 13.4909C44.613 13.4909 44.103 13.4649 43.676 13.4129V6.98191C44.233 6.89191 44.833 6.84591 45.481 6.84591C46.626 6.84591 47.489 7.09491 48.071 7.59291C48.723 8.15591 49.05 8.96091 49.05 10.0089ZM47.945 10.0379C47.945 9.27491 47.743 8.68991 47.339 8.28191C46.935 7.87491 46.345 7.67091 45.568 7.67091C45.238 7.67091 44.957 7.69291 44.724 7.73891V12.6279C44.853 12.6479 45.089 12.6569 45.432 12.6569C46.234 12.6569 46.853 12.4339 47.289 11.9879C47.725 11.5419 47.945 10.8919 47.945 10.0379V10.0379ZM54.909 11.0369C54.909 11.7619 54.702 12.3559 54.288 12.8219C53.854 13.3009 53.279 13.5399 52.561 13.5399C51.869 13.5399 51.318 13.3109 50.907 12.8509C50.497 12.3919 50.292 11.8129 50.292 11.1149C50.292 10.3849 50.503 9.78591 50.927 9.32091C51.351 8.85591 51.921 8.62291 52.639 8.62291C53.331 8.62291 53.887 8.85191 54.308 9.31091C54.708 9.75691 54.909 10.3329 54.909 11.0369V11.0369ZM53.822 11.0709C53.822 10.6359 53.728 10.2629 53.541 9.95191C53.321 9.57591 53.008 9.38791 52.601 9.38791C52.18 9.38791 51.86 9.57591 51.64 9.95191C51.452 10.2629 51.359 10.6419 51.359 11.0899C51.359 11.5249 51.453 11.8979 51.64 12.2089C51.867 12.5849 52.183 12.7729 52.591 12.7729C52.991 12.7729 53.305 12.5819 53.531 12.1989C53.725 11.8819 53.822 11.5059 53.822 11.0709ZM62.765 8.71891L61.29 13.4329H60.33L59.719 11.3859C59.5668 10.885 59.4403 10.3767 59.34 9.86291H59.321C59.2306 10.3788 59.104 10.8878 58.942 11.3859L58.293 13.4329H57.322L55.935 8.71891H57.012L57.545 10.9599C57.674 11.4899 57.78 11.9949 57.865 12.4729H57.884C57.962 12.0789 58.091 11.5769 58.273 10.9699L58.942 8.71991H59.796L60.437 10.9219C60.592 11.4589 60.718 11.9759 60.815 12.4739H60.844C60.915 11.9889 61.022 11.4719 61.164 10.9219L61.736 8.71991H62.765V8.71891ZM68.198 13.4329H67.15V10.7329C67.15 9.90091 66.834 9.48491 66.2 9.48491C66.0561 9.48068 65.913 9.50938 65.7818 9.56883C65.6507 9.62827 65.5348 9.71688 65.443 9.82791C65.2511 10.0529 65.1476 10.3402 65.152 10.6359V13.4319H64.104V10.0659C64.104 9.65191 64.091 9.20291 64.066 8.71691H64.987L65.036 9.45391H65.065C65.187 9.22491 65.369 9.03591 65.608 8.88491C65.892 8.70891 66.21 8.61991 66.558 8.61991C66.998 8.61991 67.364 8.76191 67.655 9.04691C68.017 9.39591 68.198 9.91691 68.198 10.6089V13.4329V13.4329ZM71.088 13.4329H70.041V6.55591H71.088V13.4329ZM77.258 11.0369C77.258 11.7619 77.051 12.3559 76.637 12.8219C76.203 13.3009 75.627 13.5399 74.91 13.5399C74.217 13.5399 73.666 13.3109 73.256 12.8509C72.846 12.3919 72.641 11.8129 72.641 11.1149C72.641 10.3849 72.852 9.78591 73.276 9.32091C73.7 8.85591 74.27 8.62291 74.987 8.62291C75.68 8.62291 76.235 8.85191 76.657 9.31091C77.057 9.75691 77.258 10.3329 77.258 11.0369V11.0369ZM76.17 11.0709C76.17 10.6359 76.076 10.2629 75.889 9.95191C75.67 9.57591 75.356 9.38791 74.95 9.38791C74.528 9.38791 74.208 9.57591 73.989 9.95191C73.801 10.2629 73.708 10.6419 73.708 11.0899C73.708 11.5249 73.802 11.8979 73.989 12.2089C74.216 12.5849 74.532 12.7729 74.94 12.7729C75.34 12.7729 75.653 12.5819 75.879 12.1989C76.074 11.8819 76.17 11.5059 76.17 11.0709V11.0709ZM82.33 13.4329H81.389L81.311 12.8899H81.282C80.96 13.3229 80.501 13.5399 79.905 13.5399C79.46 13.5399 79.1 13.3969 78.829 13.1129C78.7073 12.9851 78.612 12.8345 78.5487 12.6697C78.4854 12.505 78.4552 12.3293 78.46 12.1529C78.46 11.5769 78.7 11.1379 79.183 10.8339C79.665 10.5299 80.343 10.3809 81.216 10.3879V10.2999C81.216 9.67891 80.89 9.36891 80.237 9.36891C79.772 9.36891 79.362 9.48591 79.008 9.71791L78.795 9.02991C79.233 8.75891 79.774 8.62291 80.412 8.62291C81.644 8.62291 82.262 9.27291 82.262 10.5729V12.3089C82.262 12.7799 82.285 13.1549 82.33 13.4329V13.4329ZM81.242 11.8129V11.0859C80.086 11.0659 79.508 11.3829 79.508 12.0359C79.508 12.2819 79.574 12.4659 79.709 12.5889C79.8498 12.7137 80.0331 12.7795 80.221 12.7729C80.451 12.7729 80.666 12.6999 80.862 12.5549C80.9809 12.4715 81.0777 12.3603 81.1439 12.231C81.2101 12.1017 81.2438 11.9582 81.242 11.8129V11.8129ZM88.285 13.4329H87.355L87.306 12.6759H87.277C86.98 13.2519 86.474 13.5399 85.763 13.5399C85.195 13.5399 84.722 13.3169 84.347 12.8709C83.972 12.4249 83.785 11.8459 83.785 11.1349C83.785 10.3719 83.988 9.75391 84.396 9.28191C84.791 8.84191 85.275 8.62191 85.851 8.62191C86.484 8.62191 86.927 8.83491 87.179 9.26191H87.199V6.55591H88.248V12.1629C88.248 12.6219 88.26 13.0449 88.285 13.4329V13.4329ZM87.199 11.4449V10.6589C87.2089 10.4776 87.1772 10.2965 87.1065 10.1293C87.0358 9.96205 86.9279 9.81315 86.791 9.69391C86.5977 9.52359 86.3476 9.43189 86.09 9.43691C85.699 9.43691 85.393 9.59191 85.168 9.90291C84.945 10.2139 84.832 10.6109 84.832 11.0959C84.832 11.5619 84.939 11.9399 85.154 12.2309C85.381 12.5409 85.687 12.6959 86.07 12.6959C86.414 12.6959 86.689 12.5669 86.898 12.3079C87.1 12.0689 87.199 11.7809 87.199 11.4449V11.4449ZM97.248 11.0369C97.248 11.7619 97.041 12.3559 96.627 12.8219C96.193 13.3009 95.619 13.5399 94.9 13.5399C94.209 13.5399 93.658 13.3109 93.246 12.8509C92.836 12.3919 92.631 11.8129 92.631 11.1149C92.631 10.3849 92.842 9.78591 93.266 9.32091C93.69 8.85591 94.26 8.62291 94.979 8.62291C95.67 8.62291 96.227 8.85191 96.647 9.31091C97.047 9.75691 97.248 10.3329 97.248 11.0369V11.0369ZM96.162 11.0709C96.162 10.6359 96.068 10.2629 95.881 9.95191C95.66 9.57591 95.348 9.38791 94.94 9.38791C94.52 9.38791 94.2 9.57591 93.979 9.95191C93.791 10.2629 93.698 10.6419 93.698 11.0899C93.698 11.5249 93.792 11.8979 93.979 12.2089C94.206 12.5849 94.522 12.7729 94.93 12.7729C95.33 12.7729 95.645 12.5819 95.871 12.1989C96.064 11.8819 96.162 11.5059 96.162 11.0709V11.0709ZM102.883 13.4329H101.836V10.7329C101.836 9.90091 101.52 9.48491 100.885 9.48491C100.574 9.48491 100.323 9.59891 100.129 9.82791C99.935 10.0569 99.838 10.3269 99.838 10.6359V13.4319H98.789V10.0659C98.789 9.65191 98.777 9.20291 98.752 8.71691H99.672L99.721 9.45391H99.75C99.8784 9.22016 100.066 9.02402 100.293 8.88491C100.578 8.70891 100.895 8.61991 101.244 8.61991C101.683 8.61991 102.049 8.76191 102.34 9.04691C102.703 9.39591 102.883 9.91691 102.883 10.6089V13.4329V13.4329ZM109.936 9.50391H108.782V11.7939C108.782 12.3759 108.987 12.6669 109.393 12.6669C109.581 12.6669 109.737 12.6509 109.86 12.6179L109.887 13.4129C109.68 13.4909 109.408 13.5299 109.073 13.5299C108.659 13.5299 108.337 13.4039 108.104 13.1519C107.87 12.8999 107.754 12.4759 107.754 11.8809V9.50391H107.065V8.71891H107.754V7.85491L108.781 7.54491V8.71791H109.935V9.50391H109.936ZM115.484 13.4329H114.435V10.7529C114.435 9.90791 114.119 9.48491 113.486 9.48491C113 9.48491 112.668 9.72991 112.486 10.2199C112.452 10.3425 112.435 10.4695 112.437 10.5969V13.4319H111.39V6.55591H112.437V9.39691H112.457C112.787 8.87991 113.26 8.62191 113.873 8.62191C114.307 8.62191 114.666 8.76391 114.951 9.04891C115.306 9.40391 115.484 9.93191 115.484 10.6299V13.4329V13.4329ZM121.207 10.8529C121.207 11.0409 121.193 11.1989 121.168 11.3279H118.025C118.039 11.7939 118.189 12.1489 118.48 12.3949C118.746 12.6149 119.089 12.7249 119.509 12.7249C119.974 12.7249 120.398 12.6509 120.78 12.5019L120.944 13.2299C120.497 13.4239 119.971 13.5209 119.362 13.5209C118.632 13.5209 118.057 13.3059 117.641 12.8759C117.223 12.4459 117.016 11.8689 117.016 11.1449C117.016 10.4339 117.209 9.84191 117.598 9.36991C118.004 8.86591 118.553 8.61391 119.246 8.61391C119.924 8.61391 120.439 8.86591 120.787 9.36991C121.068 9.76991 121.207 10.2649 121.207 10.8529V10.8529ZM120.207 10.5819C120.222 10.2993 120.151 10.0188 120.004 9.77691C119.822 9.48591 119.545 9.33991 119.17 9.33991C119.007 9.33712 118.845 9.37462 118.7 9.4491C118.554 9.52357 118.429 9.63272 118.336 9.76691C118.158 10.0042 118.05 10.2865 118.025 10.5819H120.207V10.5819Z" fill="white"/>
</g>
<defs>
<clipPath id="clip0">
<rect width="135" height="40" fill="white"/>
</clipPath>
</defs>
</svg>
