<svg width="13" height="18" viewBox="0 0 13 18" fill="none" xmlns="http://www.w3.org/2000/svg">
<g clip-path="url(#clip0)">
<path d="M2.0148 18C1.48059 17.9995 0.968393 17.7871 0.590648 17.4094C0.212903 17.0316 0.000476621 16.5194 0 15.9852L0 2.0148C0.000476621 1.48059 0.212903 0.968393 0.590648 0.590648C0.968393 0.212903 1.48059 0.00047671 2.0148 8.96277e-08H10.1028C10.6374 -0.000159191 11.1502 0.211986 11.5285 0.5898C11.9068 0.967614 12.1195 1.48017 12.12 2.0148V15.9852C12.1195 16.5198 11.9068 17.0324 11.5285 17.4102C11.1502 17.788 10.6374 18.0002 10.1028 18H2.0148ZM2.0148 1.0884C1.76915 1.08856 1.53361 1.18621 1.35991 1.35991C1.18621 1.53361 1.08856 1.76915 1.0884 2.0148V15.9852C1.08856 16.2308 1.18621 16.4664 1.35991 16.6401C1.53361 16.8138 1.76915 16.9114 2.0148 16.9116H10.1028C10.3484 16.9114 10.584 16.8138 10.7577 16.6401C10.9314 16.4664 11.029 16.2308 11.0292 15.9852V2.0148C11.029 1.76915 10.9314 1.53361 10.7577 1.35991C10.584 1.18621 10.3484 1.08856 10.1028 1.0884H2.0148Z" fill="#09143B"/>
<path d="M11.6838 4.05005H0.433838C0.334382 4.05005 0.238999 4.01054 0.168673 3.94021C0.0983467 3.86989 0.0588379 3.7745 0.0588379 3.67505C0.0588379 3.57559 0.0983467 3.48021 0.168673 3.40988C0.238999 3.33956 0.334382 3.30005 0.433838 3.30005H11.6838C11.7833 3.30005 11.8787 3.33956 11.949 3.40988C12.0193 3.48021 12.0588 3.57559 12.0588 3.67505C12.0588 3.7745 12.0193 3.86989 11.949 3.94021C11.8787 4.01054 11.7833 4.05005 11.6838 4.05005Z" fill="#09143B"/>
<path d="M11.6838 14.7H0.433838C0.334382 14.7 0.238999 14.6604 0.168673 14.5901C0.0983467 14.5198 0.0588379 14.4244 0.0588379 14.325C0.0588379 14.2255 0.0983467 14.1301 0.168673 14.0598C0.238999 13.9895 0.334382 13.95 0.433838 13.95H11.6838C11.7833 13.95 11.8787 13.9895 11.949 14.0598C12.0193 14.1301 12.0588 14.2255 12.0588 14.325C12.0588 14.4244 12.0193 14.5198 11.949 14.5901C11.8787 14.6604 11.7833 14.7 11.6838 14.7V14.7Z" fill="#09143B"/>
<path d="M6.05994 15.075C5.9116 15.075 5.7666 15.1189 5.64326 15.2014C5.51992 15.2838 5.42379 15.4009 5.36703 15.5379C5.31026 15.675 5.29541 15.8258 5.32435 15.9713C5.35329 16.1168 5.42472 16.2504 5.52961 16.3553C5.6345 16.4602 5.76814 16.5316 5.91362 16.5606C6.05911 16.5895 6.20991 16.5746 6.34696 16.5179C6.484 16.4611 6.60114 16.365 6.68355 16.2416C6.76596 16.1183 6.80995 15.9733 6.80995 15.825C6.80995 15.626 6.73093 15.4353 6.59027 15.2946C6.44962 15.154 6.25885 15.075 6.05994 15.075Z" fill="#09143B"/>
<path d="M7.93383 2.55005H4.18384C4.08438 2.55005 3.989 2.51054 3.91867 2.44021C3.84835 2.36989 3.80884 2.2745 3.80884 2.17505C3.80884 2.07559 3.84835 1.98021 3.91867 1.90988C3.989 1.83956 4.08438 1.80005 4.18384 1.80005H7.93383C8.03329 1.80005 8.12867 1.83956 8.199 1.90988C8.26932 1.98021 8.30883 2.07559 8.30883 2.17505C8.30883 2.2745 8.26932 2.36989 8.199 2.44021C8.12867 2.51054 8.03329 2.55005 7.93383 2.55005V2.55005Z" fill="#09143B"/>
</g>
<defs>
<clipPath id="clip0">
<rect width="12.1176" height="18" fill="white"/>
</clipPath>
</defs>
</svg>
