<svg width="79" height="72" viewBox="0 0 79 72" fill="none" xmlns="http://www.w3.org/2000/svg">
<g clip-path="url(#clip0)">
<path d="M44.0345 8.87323L39.9818 17.382C39.321 16.166 38.5515 15.0125 37.6829 13.9357C36.7816 12.8368 35.7704 11.8333 34.6651 10.941C33.553 10.0286 32.3021 9.301 30.96 8.78609C29.5385 8.26029 28.0533 7.92724 26.5439 7.79577C24.8137 7.64886 23.0714 7.83165 21.4089 8.3345C19.4659 8.79261 17.6409 9.6558 16.0525 10.8679C14.4641 12.08 13.1479 13.6139 12.1896 15.3697C11.1475 17.1002 10.474 19.0283 10.2116 21.0327C9.9492 23.0371 10.1035 25.0742 10.6649 27.0158C11.1852 28.9768 12.0004 30.8469 13.0823 32.5616C13.933 33.9323 15.0003 35.1551 16.2423 36.1822C17.3495 37.0435 18.5765 37.7375 19.8842 38.2421C21.0158 38.7098 22.1984 39.0422 23.4076 39.2324C24.4544 39.3761 25.5119 39.4265 26.5676 39.3829C27.2861 39.3721 28.0034 39.3219 28.7164 39.2324C29.0798 39.1769 29.3563 39.1215 29.5538 39.0819L25.6038 46.8697C22.2298 46.8867 18.8898 46.193 15.7999 44.8336C12.9669 43.6335 10.4138 41.8555 8.30282 39.6127C6.36041 37.4939 4.79699 35.055 3.68132 32.4032C2.5912 29.9016 2.00073 27.21 1.94332 24.4806C1.8301 19.1724 3.44411 13.9717 6.54112 9.66549C9.57746 5.38171 14.0129 2.29859 19.0784 0.950699C22.412 -0.0355267 25.9304 -0.220092 29.3484 0.411966C32.4318 0.955725 35.3934 2.04772 38.0937 3.63644C40.3969 4.97492 42.4154 6.75422 44.0345 8.87323V8.87323Z" fill="white"/>
<path d="M59.3765 1.14868H50.4258L55.1105 13.5158L66.7314 43.4392L68.0349 46.6557H77.0567L59.3765 1.14868Z" fill="white"/>
<path d="M34.8548 34.36L29.7119 46.6557H38.7811L46.7206 27.6733H37.9437L34.8548 34.36Z" fill="white"/>
<path d="M55.7502 22.5872H26.3069V30.5493H58.8391L55.7502 22.5872Z" fill="white"/>
<path d="M0 60.3776V59.0625H2.0224V57.0422H3.3338V59.0783H5.3641V60.3935H3.3338V62.4216H2.0224V60.3776H0Z" fill="white"/>
<path d="M13.3035 54.816C13.6406 54.8084 13.9752 54.8761 14.2831 55.0141C14.5316 55.1364 14.7501 55.3122 14.923 55.529C15.084 55.7476 15.202 55.995 15.2706 56.2579C15.3365 56.5169 15.371 56.7829 15.3733 57.0502C15.3829 57.399 15.3239 57.7463 15.1995 58.0722C15.0994 58.3458 14.9339 58.5906 14.7176 58.7852C14.4872 58.9784 14.2176 59.1189 13.9276 59.1972C13.6076 59.2949 13.2746 59.343 12.9401 59.3398H12.1501V62.3662H10.6333V54.816H13.3035ZM12.8374 58.2544C12.9721 58.2592 13.1063 58.2371 13.2324 58.1895C13.3586 58.1419 13.474 58.0697 13.5721 57.9771C13.7745 57.7372 13.8739 57.4267 13.8486 57.1135C13.871 56.8033 13.7844 56.4949 13.6037 56.2421C13.5014 56.1383 13.3776 56.0582 13.2411 56.0076C13.1047 55.9569 12.9587 55.9369 12.8137 55.9489H12.1817V58.2544H12.8374Z" fill="white"/>
<path d="M20.3662 54.8159H21.8909V61.1539H24.6006V62.4057H20.3662V54.8159Z" fill="white"/>
<path d="M30.9443 60.1161C30.9313 60.2901 30.9313 60.4649 30.9443 60.639C30.965 60.7831 31.0104 60.9224 31.0786 61.0509C31.1461 61.1652 31.2412 61.2605 31.3551 61.3282C31.4906 61.402 31.6434 61.4376 31.7975 61.4312C31.9518 61.4411 32.1056 61.4053 32.2399 61.3282C32.3558 61.2632 32.4515 61.1672 32.5164 61.0509C32.5845 60.9224 32.63 60.7831 32.6507 60.639C32.6636 60.4649 32.6636 60.2901 32.6507 60.1161V54.8159H34.1754V60.1161C34.1865 60.5246 34.1166 60.9312 33.97 61.3124C33.8549 61.6013 33.6704 61.8571 33.4328 62.0571C33.2027 62.2424 32.9319 62.3701 32.6428 62.4295C32.0485 62.5509 31.4359 62.5509 30.8416 62.4295C30.5477 62.3816 30.2717 62.2567 30.0415 62.0675C29.8112 61.8783 29.6348 61.6315 29.5302 61.352C29.3816 60.9548 29.3118 60.5322 29.3248 60.1082V54.8159H30.8495L30.9443 60.1161Z" fill="white"/>
<path d="M40.6849 60.2588C40.683 60.4212 40.6989 60.5832 40.7323 60.7421C40.752 60.8778 40.8064 61.0061 40.8903 61.1144C40.9737 61.2141 41.0792 61.2928 41.1984 61.3442C41.3571 61.4055 41.5261 61.4351 41.6961 61.4314C41.9247 61.4314 42.1459 61.35 42.3202 61.2016C42.4191 61.1144 42.4963 61.0052 42.5457 60.8828C42.5951 60.7604 42.6152 60.6281 42.6046 60.4965C42.608 60.3455 42.5839 60.1952 42.5335 60.0528C42.4853 59.9269 42.4097 59.8132 42.3123 59.7201C42.183 59.5953 42.0334 59.4934 41.8699 59.419C41.6634 59.3182 41.4495 59.2335 41.23 59.1655C40.9268 59.0689 40.6333 58.9442 40.3531 58.7931C40.1202 58.6705 39.9093 58.5099 39.729 58.3178C39.5631 58.1388 39.439 57.925 39.3656 57.6919C39.2853 57.4356 39.2453 57.1683 39.2471 56.8997C39.2243 56.5904 39.269 56.28 39.3782 55.9899C39.4873 55.6998 39.6583 55.4371 39.8791 55.2201C40.3667 54.8253 40.9837 54.6275 41.6092 54.6655C41.9261 54.6605 42.2422 54.6978 42.5493 54.7764C42.8192 54.8414 43.0722 54.9629 43.2919 55.1329C43.5008 55.3057 43.666 55.5256 43.7738 55.7747C43.8978 56.0674 43.9571 56.3837 43.9476 56.7016V56.9155H42.4861C42.4959 56.639 42.4304 56.3651 42.2965 56.1232C42.2262 56.023 42.1307 55.9431 42.0197 55.8916C41.9088 55.8401 41.7863 55.8189 41.6645 55.8301C41.519 55.8251 41.3739 55.8493 41.2379 55.9014C41.1354 55.9475 41.0438 56.015 40.9693 56.0995C40.8975 56.1802 40.8485 56.2787 40.8271 56.3847C40.815 56.4926 40.815 56.6016 40.8271 56.7095C40.8198 56.9169 40.8689 57.1223 40.9693 57.3037C41.1366 57.5074 41.3587 57.6586 41.6092 57.7394L42.7863 58.2544C43.0357 58.3628 43.2738 58.4955 43.4973 58.6505C43.6653 58.7737 43.812 58.9236 43.9318 59.0942C44.0417 59.2546 44.1195 59.4349 44.1609 59.625C44.2074 59.833 44.2286 60.0458 44.2241 60.2588C44.2536 60.5849 44.206 60.9134 44.0852 61.2176C43.9644 61.5218 43.7738 61.7932 43.5289 62.0097C42.9664 62.405 42.287 62.5976 41.6013 62.5564C40.9329 62.6203 40.2661 62.4183 39.7448 61.9939C39.5531 61.7793 39.4055 61.5289 39.3106 61.2569C39.2157 60.985 39.1754 60.697 39.1918 60.4093V60.1004H40.6849V60.2588Z" fill="white"/>
<path d="M57.188 56.25L57.03 57.9612C57.1614 57.762 57.3522 57.6095 57.5751 57.5255C57.8289 57.436 58.0961 57.3904 58.3651 57.3908C58.6766 57.3794 58.9852 57.4534 59.2578 57.6047C59.4904 57.7359 59.6861 57.9239 59.8266 58.1514C59.9677 58.3964 60.064 58.6647 60.111 58.9436C60.1681 59.2333 60.1972 59.5278 60.1979 59.823C60.1984 60.203 60.164 60.5823 60.0952 60.956C60.0481 61.2546 59.9405 61.5403 59.7792 61.7957C59.5904 62.0454 59.336 62.2375 59.0445 62.3503C58.6609 62.4816 58.2569 62.5433 57.8517 62.5325C57.461 62.5462 57.0716 62.4815 56.7061 62.3424C56.4408 62.2373 56.2087 62.0621 56.0346 61.8354C55.8807 61.6343 55.7728 61.4016 55.7186 61.154C55.6708 60.9299 55.6443 60.7018 55.6396 60.4727V60.2667H57.1011C57.0935 60.4013 57.0935 60.5362 57.1011 60.6707C57.1148 60.8099 57.1494 60.9461 57.2039 61.0748C57.2537 61.1951 57.3324 61.3012 57.4329 61.3838C57.5441 61.4677 57.6811 61.5098 57.82 61.5026C57.9571 61.5124 58.0942 61.4835 58.2157 61.419C58.3372 61.3546 58.4382 61.2573 58.5073 61.1382C58.6623 60.7928 58.7328 60.4152 58.7127 60.0369C58.7281 59.7731 58.7281 59.5085 58.7127 59.2447C58.6937 59.073 58.6428 58.9064 58.5626 58.7535C58.5047 58.6406 58.4099 58.5512 58.294 58.5C58.158 58.4479 58.013 58.4236 57.8674 58.4287C57.7763 58.4211 57.6846 58.4335 57.5986 58.4649C57.5127 58.4964 57.4346 58.5462 57.3697 58.6109C57.2454 58.7528 57.1681 58.93 57.1485 59.1179H55.766L56.0425 55.022H59.9925V56.25H57.188Z" fill="white"/>
<path d="M65.025 57.3907C65.0478 56.95 65.1439 56.5162 65.3094 56.1073C65.4533 55.7496 65.6975 55.4414 66.0125 55.22C66.4044 54.9741 66.8622 54.8551 67.3239 54.8793C67.7124 54.8692 68.0991 54.9365 68.4615 55.0773C68.7607 55.209 69.0118 55.4304 69.1804 55.7112C69.382 56.0591 69.511 56.4446 69.5596 56.8441C69.6425 57.4053 69.6795 57.9723 69.6702 58.5395C69.6702 59.0624 69.6702 59.5694 69.6228 60.0448C69.5944 60.4855 69.4957 60.9189 69.3305 61.3282C69.1906 61.6862 68.9453 61.9929 68.6274 62.2076C68.2341 62.4413 67.7802 62.5517 67.3239 62.5245C66.9367 62.5342 66.5511 62.4725 66.1863 62.3423C65.8816 62.2241 65.6256 62.0064 65.4595 61.7244C65.2579 61.3792 65.1288 60.9964 65.0803 60.5994C64.9974 60.0382 64.9604 59.4712 64.9697 58.9039C64.9697 58.3731 64.9855 57.874 65.025 57.3907ZM66.5339 60.3934C66.5454 60.6355 66.5878 60.8751 66.6603 61.1064C66.7023 61.2525 66.7947 61.3788 66.921 61.4629C67.0445 61.53 67.1835 61.5628 67.3239 61.558C67.47 61.5637 67.6141 61.5221 67.7347 61.4392C67.8582 61.3284 67.9439 61.1815 67.9796 61.0193C68.0523 60.7607 68.0974 60.4951 68.1139 60.227C68.1139 59.8943 68.1139 59.4981 68.1139 59.0149V58.2226C68.1139 57.7472 68.1139 57.367 68.1139 57.0659C68.0973 56.8238 68.0522 56.5844 67.9796 56.3529C67.9372 56.2091 67.8482 56.0837 67.7268 55.9964C67.6033 55.9293 67.4642 55.8965 67.3239 55.9013C67.1752 55.895 67.0285 55.9366 66.9052 56.0201C66.783 56.1288 66.6975 56.2727 66.6603 56.4321C66.5881 56.6905 66.5457 56.9563 66.5339 57.2244C66.5339 57.5492 66.5339 57.9532 66.5339 58.4365V59.2288C66.4944 59.7041 66.5023 60.0923 66.5339 60.3934Z" fill="white"/>
<path d="M74.3469 57.3908C74.3727 56.9504 74.4687 56.5171 74.6313 56.1073C74.7805 55.7527 75.0236 55.4458 75.3344 55.22C75.7218 54.9772 76.1737 54.8584 76.63 54.8793C77.0185 54.8692 77.4052 54.9366 77.7676 55.0774C78.0697 55.2076 78.3238 55.4292 78.4944 55.7112C78.6891 56.0623 78.8176 56.4463 78.8736 56.8441C78.9526 57.4057 78.9895 57.9724 78.9842 58.5395C78.9842 59.0624 78.9842 59.5694 78.9289 60.0448C78.9061 60.4855 78.8099 60.9193 78.6445 61.3283C78.502 61.6847 78.2574 61.9907 77.9414 62.2077C77.5453 62.4415 77.0888 62.5518 76.63 62.5246C76.2454 62.5345 75.8624 62.4727 75.5003 62.3423C75.1944 62.2263 74.9377 62.0081 74.7735 61.7244C74.5724 61.3783 74.4409 60.9961 74.3864 60.5994C74.3022 60.0382 74.2599 59.4715 74.26 58.904C74.26 58.3731 74.3074 57.874 74.3469 57.3908ZM75.84 60.3934C75.8535 60.6359 75.8987 60.8756 75.9743 61.1064C76.0167 61.2502 76.1056 61.3756 76.2271 61.4629C76.3506 61.53 76.4897 61.5628 76.63 61.558C76.7787 61.5643 76.9254 61.5227 77.0487 61.4392C77.1681 61.3251 77.253 61.1795 77.2936 61.0193C77.3684 60.7561 77.4109 60.4847 77.42 60.2112C77.42 59.8784 77.42 59.4823 77.42 58.999V58.2068C77.42 57.7314 77.42 57.3511 77.42 57.0501C77.4073 56.8074 77.3622 56.5676 77.2857 56.3371C77.2434 56.1933 77.1544 56.0679 77.0329 55.9805C76.9094 55.9135 76.7703 55.8807 76.63 55.8855C76.4838 55.8785 76.3393 55.9203 76.2192 56.0043C76.0942 56.1118 76.0058 56.2559 75.9664 56.4163C75.8982 56.6755 75.8558 56.9409 75.84 57.2085C75.84 57.5334 75.84 57.9374 75.84 58.4207V59.2129C75.84 59.7041 75.84 60.0923 75.84 60.3934Z" fill="white"/>
<path d="M16.3451 68.1338H16.59H16.8665H17.1272C17.2001 68.1469 17.2698 68.1738 17.3326 68.213C17.46 68.2906 17.5681 68.3962 17.6486 68.522C17.7348 68.6681 17.7786 68.8355 17.775 69.0053C17.7788 69.1897 17.7294 69.3712 17.6328 69.5282C17.5307 69.6778 17.3842 69.7915 17.2141 69.853V69.853C17.4269 69.8861 17.619 69.9995 17.7513 70.1699C17.8755 70.3425 17.9393 70.5513 17.933 70.7641C17.9325 70.9018 17.9085 71.0385 17.8619 71.1681C17.8081 71.2959 17.7333 71.4137 17.6407 71.5167C17.5374 71.6224 17.4138 71.706 17.2773 71.7623C17.1208 71.8215 16.9547 71.8511 16.7875 71.8495H15.01V68.1338H16.3451ZM16.4794 69.7183C16.696 69.7406 16.9135 69.6874 17.0956 69.5678C17.1606 69.5129 17.2116 69.4433 17.2446 69.3648C17.2775 69.2863 17.2915 69.2011 17.2852 69.1162C17.2929 69.0068 17.2711 68.8973 17.222 68.7993C17.1859 68.7208 17.1247 68.6567 17.0482 68.6171C16.9705 68.573 16.8843 68.546 16.7954 68.5378C16.6902 68.5297 16.5846 68.5297 16.4794 68.5378H15.4761V69.7183H16.4794ZM16.7401 71.4613C16.9309 71.4708 17.1179 71.4055 17.2615 71.279C17.3252 71.2134 17.3743 71.135 17.4056 71.049C17.4369 70.9629 17.4497 70.8713 17.4432 70.7799C17.4405 70.6868 17.419 70.5951 17.38 70.5106C17.3342 70.4345 17.2721 70.3696 17.1983 70.3204C17.1164 70.2687 17.0251 70.2337 16.9297 70.2174C16.8274 70.2049 16.7239 70.2049 16.6216 70.2174H15.4761V71.5326L16.7401 71.4613Z" fill="white"/>
<path d="M19.9238 68.1338V71.9287H19.4182V68.1338H19.9238Z" fill="white"/>
<path d="M22.1199 68.1338L24.1107 71.2157V68.1338H24.5926V71.9287H24.0396L22.0646 68.8864V71.9287H21.5906V68.1338H22.1199Z" fill="white"/>
<path d="M27.7686 68.1338L29.2301 71.9128H28.6771L28.2584 70.772H26.6784L26.2518 71.9128H25.7383L27.2156 68.1338H27.7686ZM28.1162 70.3679L27.4921 68.5933L26.8601 70.3521L28.1162 70.3679Z" fill="white"/>
<path d="M32.1925 68.1337C32.4975 68.1182 32.7978 68.2138 33.0378 68.4031C33.141 68.4931 33.2224 68.6056 33.2758 68.7319C33.3291 68.8582 33.3531 68.995 33.3459 69.132C33.3439 69.3387 33.2866 69.5412 33.18 69.7182C33.1249 69.8078 33.0524 69.8855 32.967 69.9467C32.8815 70.008 32.7848 70.0515 32.6823 70.0747C32.7761 70.088 32.8655 70.1233 32.943 70.1777C33.012 70.2243 33.0689 70.2868 33.1089 70.36C33.1513 70.4316 33.1833 70.509 33.2037 70.5897C33.2037 70.6769 33.2037 70.764 33.2432 70.8512C33.2827 70.9383 33.2432 71.0413 33.2432 71.1364C33.2432 71.2314 33.2432 71.3265 33.2432 71.4137C33.2533 71.505 33.2718 71.5952 33.2985 71.683C33.3284 71.7593 33.3683 71.8312 33.417 71.8969H32.8561C32.8185 71.8516 32.794 71.7968 32.785 71.7385C32.785 71.6751 32.785 71.5959 32.785 71.5166C32.785 71.4374 32.785 71.3423 32.785 71.2473C32.7928 71.1524 32.7928 71.057 32.785 70.9621C32.785 70.8749 32.785 70.7878 32.7297 70.7006C32.7135 70.622 32.6782 70.5485 32.627 70.4867C32.5825 70.4228 32.5228 70.371 32.4532 70.3362C32.3589 70.2943 32.2561 70.2753 32.153 70.2807H30.9206V71.8652H30.415V68.1337H32.1925ZM32.3031 69.8608C32.4009 69.8442 32.4947 69.8093 32.5796 69.7578C32.6583 69.7053 32.7233 69.6347 32.7692 69.5519C32.821 69.446 32.8454 69.3289 32.8403 69.2112C32.8463 69.0413 32.7901 68.875 32.6823 68.7438C32.6145 68.6787 32.5336 68.6288 32.4451 68.5974C32.3566 68.566 32.2624 68.5537 32.1688 68.5615H30.9206V69.8846H31.9634C32.0775 69.8796 32.191 69.8664 32.3031 69.845V69.8608Z" fill="white"/>
<path d="M36.2056 71.9128H35.7V70.3283L34.2385 68.1338H34.8389L35.9765 69.948L37.0825 68.1338H37.6513L36.2056 70.3838V71.9128Z" fill="white"/>
<path d="M41.0799 69.2745C41.1526 69.0422 41.2708 68.8267 41.4275 68.6407C41.5783 68.4519 41.7701 68.3001 41.9884 68.1971C42.2375 68.0876 42.5065 68.031 42.7784 68.031C43.0504 68.031 43.3194 68.0876 43.5684 68.1971C43.7896 68.2991 43.9842 68.4509 44.1372 68.6407C44.2885 68.8291 44.4037 69.044 44.4769 69.2745C44.6242 69.76 44.6242 70.2785 44.4769 70.764C44.4037 70.9945 44.2885 71.2094 44.1372 71.3978C43.9842 71.5876 43.7896 71.7395 43.5684 71.8414C43.3181 71.946 43.0496 71.9999 42.7784 71.9999C42.5072 71.9999 42.2387 71.946 41.9884 71.8414C41.7701 71.7384 41.5783 71.5867 41.4275 71.3978C41.2708 71.2118 41.1526 70.9963 41.0799 70.764C40.9327 70.2785 40.9327 69.76 41.0799 69.2745V69.2745ZM41.546 70.5818C41.592 70.763 41.6695 70.9347 41.7751 71.0888C41.8827 71.2379 42.0233 71.36 42.1859 71.4453C42.3709 71.534 42.5734 71.58 42.7784 71.58C42.9835 71.58 43.1859 71.534 43.3709 71.4453C43.5335 71.36 43.6742 71.2379 43.7817 71.0888C43.8873 70.9347 43.9649 70.763 44.0108 70.5818C44.1162 70.2142 44.1162 69.8243 44.0108 69.4568C43.9649 69.2755 43.8873 69.1039 43.7817 68.9497C43.6742 68.8006 43.5335 68.6785 43.3709 68.5932C43.1859 68.5046 42.9835 68.4586 42.7784 68.4586C42.5734 68.4586 42.3709 68.5046 42.1859 68.5932C42.0233 68.6785 41.8827 68.8006 41.7751 68.9497C41.6695 69.1039 41.592 69.2755 41.546 69.4568C41.4407 69.8243 41.4407 70.2142 41.546 70.5818Z" fill="white"/>
<path d="M47.6212 68.1339C47.7787 68.1235 47.9367 68.1448 48.086 68.1965C48.2352 68.2482 48.3726 68.3293 48.4902 68.435C48.6858 68.6514 48.7905 68.9352 48.7825 69.2272C48.7881 69.5188 48.6837 69.8018 48.4902 70.0195C48.3722 70.1242 48.2346 70.204 48.0853 70.2544C47.936 70.3047 47.7782 70.3245 47.6212 70.3126H46.4678V71.8971H45.9622V68.1339H47.6212ZM47.4474 69.9561C47.6721 69.9766 47.8967 69.9147 48.0794 69.7818C48.1486 69.7146 48.2022 69.6328 48.2363 69.5425C48.2704 69.4521 48.2843 69.3553 48.2769 69.2589C48.2842 69.1638 48.2703 69.0681 48.2361 68.9791C48.2019 68.89 48.1484 68.8097 48.0794 68.7439C47.8978 68.6082 47.6731 68.5435 47.4474 68.5617H46.4678V69.9561H47.4474Z" fill="white"/>
<path d="M49.77 68.5458V68.1338H52.7957V68.5616H51.5554V71.9287H51.0498V68.5458H49.77Z" fill="white"/>
<path d="M54.5495 68.1338V71.9287H54.0518V68.1338H54.5495Z" fill="white"/>
<path d="M56.09 69.2746C56.16 69.0427 56.2755 68.8272 56.4297 68.6408C56.5827 68.451 56.7774 68.2991 56.9985 68.1972C57.2455 68.0811 57.5159 68.0242 57.7885 68.0308C58.0611 68.025 58.3313 68.0819 58.5785 68.1972C58.7971 68.3034 58.9909 68.4545 59.1473 68.6408C59.2987 68.8292 59.4139 69.0441 59.487 69.2746C59.6343 69.7601 59.6343 70.2786 59.487 70.7641C59.4139 70.9946 59.2987 71.2095 59.1473 71.3979C58.9909 71.5842 58.7971 71.7353 58.5785 71.8415C58.3295 71.9503 58.0601 72.0043 57.7885 72C57.5169 72.005 57.2474 71.951 56.9985 71.8415C56.7774 71.7396 56.5827 71.5877 56.4297 71.3979C56.2755 71.2115 56.16 70.996 56.09 70.7641C55.9309 70.2804 55.9309 69.7583 56.09 69.2746ZM56.5482 70.5818C56.5997 70.7625 56.6798 70.9337 56.7852 71.0889C56.891 71.2397 57.0321 71.3621 57.196 71.4454C57.3811 71.534 57.5835 71.58 57.7885 71.58C57.9936 71.58 58.196 71.534 58.381 71.4454C58.5437 71.3601 58.6843 71.238 58.7918 71.0889C58.8974 70.9348 58.975 70.7631 59.0209 70.5818C59.1156 70.2128 59.1156 69.8258 59.0209 69.4568C58.975 69.2756 58.8974 69.1039 58.7918 68.9498C58.6843 68.8007 58.5437 68.6786 58.381 68.5933C58.196 68.5047 57.9936 68.4587 57.7885 68.4587C57.5835 68.4587 57.3811 68.5047 57.196 68.5933C57.0321 68.6766 56.891 68.799 56.7852 68.9498C56.6798 69.105 56.5997 69.2762 56.5482 69.4568C56.4536 69.8258 56.4536 70.2128 56.5482 70.5818Z" fill="white"/>
<path d="M61.5488 68.1338L63.5396 71.2157V68.1338H64.0215V71.9287H63.4685L61.4935 68.8864V71.9287H61.0195V68.1338H61.5488Z" fill="white"/>
</g>
<defs>
<clipPath id="clip0">
<rect width="79" height="72" fill="white"/>
</clipPath>
</defs>
</svg>
