<svg width="22" height="24" viewBox="0 0 22 24" fill="none" xmlns="http://www.w3.org/2000/svg">
<g clip-path="url(#clip0)">
<path d="M9.37338 3.3407C9.19464 3.16086 8.97115 3.03223 8.7261 2.96817C8.48105 2.9041 8.22336 2.90693 7.97977 2.97636C7.73617 3.0458 7.51555 3.1793 7.34079 3.36302C7.16602 3.54675 7.04348 3.774 6.98588 4.02121L5.29618 10.6097L1.32622 14.5481C1.26146 14.6123 1.20997 14.6886 1.17468 14.7727C1.13939 14.8569 1.121 14.9471 1.12056 15.0384C1.12012 15.1296 1.13764 15.2201 1.17212 15.3045C1.2066 15.389 1.25735 15.4658 1.32149 15.5306L1.68734 15.9013L0.205794 17.3714C0.0751068 17.5009 0.00110709 17.6772 7.20402e-05 17.8614C-0.000963014 18.0457 0.0710514 18.2228 0.200275 18.3538L3.58204 21.7785C3.71128 21.9095 3.88714 21.9836 4.07093 21.9847C4.25473 21.9857 4.43141 21.9135 4.56211 21.784L6.04366 20.3123L6.4103 20.683C6.53954 20.814 6.71539 20.8882 6.89919 20.8892C7.08299 20.8903 7.25967 20.8181 7.39037 20.6885L7.93521 20.1479L11.2468 23.5038C11.3107 23.5688 11.3868 23.6205 11.4707 23.6559C11.5546 23.6914 11.6447 23.7099 11.7357 23.7104C11.8267 23.7109 11.917 23.6934 12.0013 23.6589C12.0855 23.6244 12.1622 23.5736 12.2269 23.5094L14.2603 21.4979C14.3909 21.3682 14.4648 21.1919 14.4657 21.0076C14.4666 20.8234 14.3944 20.6464 14.2651 20.5154L10.9535 17.1587L11.3619 16.7533L17.952 15.1267C18.1992 15.0715 18.4271 14.951 18.6122 14.7777C18.7972 14.6044 18.9327 14.3846 19.0044 14.1412C19.0762 13.8977 19.0817 13.6395 19.0203 13.3932C18.9589 13.1469 18.8329 12.9216 18.6553 12.7406L9.37338 3.3407ZM4.07957 20.3076L1.67314 17.8701L2.66268 16.8884L5.0691 19.3259L4.07957 20.3076ZM2.79357 15.0469L5.91356 11.951L10.027 16.117L6.90782 19.2129L2.79357 15.0469ZM12.7922 20.996L11.7483 22.0337L8.92159 19.171L9.9671 18.1333L12.7922 20.996ZM17.6524 13.7673L11.2239 15.3535C11.1577 15.2856 6.76038 10.8326 6.68863 10.7599C6.69336 10.7417 8.33181 4.35 8.33654 4.33261C8.33756 4.32717 8.34007 4.32212 8.34378 4.31801C8.3475 4.31391 8.35227 4.31091 8.35757 4.30936C8.36288 4.30781 8.36851 4.30775 8.37384 4.30921C8.37917 4.31066 8.384 4.31356 8.38779 4.31759L17.6673 13.7159C17.6714 13.7197 17.6743 13.7245 17.6757 13.7299C17.6772 13.7352 17.6771 13.7409 17.6756 13.7462C17.674 13.7515 17.671 13.7563 17.6669 13.76C17.6628 13.7637 17.6578 13.7662 17.6524 13.7673V13.7673Z" fill="#09143B"/>
<path d="M19.8223 2.29187C19.1229 1.57329 18.2885 1.00075 17.3671 0.607331C16.4458 0.213916 15.4558 0.0074271 14.4543 -0.000203564C14.3633 -0.0011896 14.273 0.0158039 14.1885 0.0498066C14.1041 0.0838094 14.0271 0.134156 13.9621 0.19797C13.8307 0.326851 13.7558 0.502768 13.7538 0.687023C13.7518 0.871279 13.8229 1.04878 13.9515 1.18047C14.08 1.31217 14.2555 1.38728 14.4393 1.38927C15.259 1.39773 16.069 1.56803 16.823 1.89043C17.577 2.21283 18.2603 2.68101 18.8337 3.26821C19.4071 3.85541 19.8595 4.55013 20.1649 5.31266C20.4704 6.07518 20.6229 6.89058 20.6139 7.71223C20.6129 7.80347 20.6299 7.89399 20.6639 7.97864C20.6979 8.06329 20.7482 8.1404 20.8119 8.20558C20.8756 8.27075 20.9514 8.32271 21.0352 8.35848C21.1189 8.39426 21.2088 8.41315 21.2999 8.41408H21.307C21.4895 8.41388 21.6646 8.3416 21.7943 8.21289C21.924 8.08418 21.9979 7.90941 22 7.72646C22.0139 6.72121 21.8285 5.7232 21.4547 4.7903C21.0809 3.8574 20.526 3.00818 19.8223 2.29187V2.29187Z" fill="#09143B"/>
<path d="M14.4291 2.78516H14.422C14.2423 2.79024 14.0715 2.86515 13.9459 2.99407C13.8202 3.12298 13.7494 3.29581 13.7485 3.47606C13.7476 3.6563 13.8166 3.82985 13.9409 3.96005C14.0653 4.09025 14.2352 4.16691 14.4149 4.17384C15.3321 4.18447 16.2075 4.55964 16.8488 5.2169C17.4902 5.87417 17.845 6.75978 17.8353 7.67913C17.8343 7.77044 17.8512 7.86105 17.8851 7.94579C17.919 8.03053 17.9693 8.10773 18.033 8.17299C18.0967 8.23825 18.1726 8.29028 18.2564 8.3261C18.3402 8.36193 18.4302 8.38084 18.5213 8.38177H18.5292C18.7118 8.38178 18.887 8.30956 19.0168 8.18081C19.1465 8.05206 19.2204 7.87717 19.2223 7.69415C19.2355 6.4062 18.7381 5.16567 17.8393 4.24518C16.9405 3.32469 15.714 2.79954 14.4291 2.78516V2.78516Z" fill="#09143B"/>
</g>
<defs>
<clipPath id="clip0">
<rect width="22" height="23.7111" fill="white"/>
</clipPath>
</defs>
</svg>
